<svg version="1.1" viewBox="0.0 0.0 960.0 720.0" fill="none" stroke="none" stroke-linecap="square" stroke-miterlimit="10" xmlns:xlink="http://www.w3.org/1999/xlink" xmlns="http://www.w3.org/2000/svg"><clipPath id="p.0"><path d="m0 0l960.0 0l0 720.0l-960.0 0l0 -720.0z" clip-rule="nonzero"/></clipPath><g clip-path="url(#p.0)"><path fill="#000000" fill-opacity="0.0" d="m0 0l960.0 0l0 720.0l-960.0 0z" fill-rule="evenodd"/><path fill="#0b5394" d="m101.173225 86.93182l0 0c0 -1.8989639 1.5394211 -3.438385 3.4383926 -3.438385l79.548416 0c0.91192627 0 1.7864838 0.3622589 2.431305 1.0070801c0.64482117 0.64482117 1.0070801 1.5193939 1.0070801 2.431305l0 13.753143c0 1.8989716 -1.5394135 3.4383926 -3.438385 3.4383926l-79.548416 0l0 0c-1.8989716 0 -3.4383926 -1.5394211 -3.4383926 -3.4383926z" fill-rule="evenodd"/><path fill="#ff9900" d="m101.173225 113.73528l0 0c0 -1.8989716 1.5394211 -3.4383926 3.4383926 -3.4383926l79.548416 0c0.91192627 0 1.7864838 0.3622589 2.431305 1.0070801c0.64482117 0.64482117 1.0070801 1.5193939 1.0070801 2.4313126l0 13.753143c0 1.8989639 -1.5394135 3.4383926 -3.438385 3.4383926l-79.548416 0l0 0c-1.8989716 0 -3.4383926 -1.5394287 -3.4383926 -3.4383926z" fill-rule="evenodd"/><path fill="#0b5394" d="m101.173225 140.53842l0 0c0 -1.8989563 1.5394211 -3.438385 3.4383926 -3.438385l79.548416 0c0.91192627 0 1.7864838 0.3622589 2.431305 1.0070801c0.64482117 0.64482117 1.0070801 1.5193939 1.0070801 2.431305l0 13.753143c0 1.8989716 -1.5394135 3.4384003 -3.438385 3.4384003l-79.548416 0l0 0c-1.8989716 0 -3.4383926 -1.5394287 -3.4383926 -3.4384003z" fill-rule="evenodd"/><path fill="#ff9900" d="m192.52231 101.65879l11.291336 -11.291336l11.291336 11.291336l-5.6456604 0l0 24.078743l-11.291336 0l0 -24.078743z" fill-rule="evenodd"/><path fill="#0b5394" d="m230.12073 134.37534l-11.291336 11.291336l-11.291336 -11.291336l5.6456757 0l0 -24.07875l11.291336 0l0 24.07875z" fill-rule="evenodd"/></g></svg>